<?xml version="1.0" encoding="utf-8"?>
<!-- Generator: Adobe Illustrator 24.0.1, SVG Export Plug-In . SVG Version: 6.00 Build 0)  -->
<svg version="1.1" id="圖層_1" xmlns="http://www.w3.org/2000/svg" xmlns:xlink="http://www.w3.org/1999/xlink" x="0px" y="0px"
	 viewBox="0 0 80 80" style="enable-background:new 0 0 80 80;" xml:space="preserve">
<style type="text/css">
	.st0{fill:#F7D57A;}
</style>
<g>
	<polygon class="st0" points="60.13,42.14 58.16,38.19 21.97,38.19 19.99,42.14 	"/>
	<polygon class="st0" points="57.55,36.97 55.57,33.02 24.55,33.02 22.58,36.97 	"/>
	<polygon class="st0" points="65.31,52.49 63.33,48.54 16.8,48.54 14.82,52.49 	"/>
	<polygon class="st0" points="62.72,47.32 60.74,43.36 19.38,43.36 17.41,47.32 	"/>
	<polygon class="st0" points="35.51,11.11 44.62,11.11 42.64,7.16 37.48,7.16 	"/>
	<polygon class="st0" points="52.38,26.63 50.4,22.68 29.73,22.68 27.75,26.63 	"/>
	<polygon class="st0" points="30.34,21.46 49.79,21.46 47.82,17.51 32.31,17.51 	"/>
	<polygon class="st0" points="54.96,31.8 52.99,27.85 27.14,27.85 25.16,31.8 	"/>
	<polygon class="st0" points="34.9,12.33 32.92,16.28 47.21,16.28 45.23,12.33 	"/>
	<polygon class="st0" points="42.03,5.94 40.06,2 38.09,5.94 	"/>
	<polygon class="st0" points="67.89,57.66 65.92,53.71 14.21,53.71 12.23,57.66 	"/>
	<polygon class="st0" points="3.87,74.4 2.13,77.88 78,77.88 76.26,74.4 	"/>
	<polygon class="st0" points="70.48,62.83 68.5,58.88 11.62,58.88 9.65,62.83 	"/>
	<polygon class="st0" points="73.67,69.22 6.45,69.22 4.48,73.18 75.65,73.18 	"/>
	<polygon class="st0" points="73.06,68 71.09,64.05 9.04,64.05 7.06,68 	"/>
</g>
</svg>
