<?xml version="1.0" encoding="utf-8"?>
<!-- Generator: Adobe Illustrator 24.0.1, SVG Export Plug-In . SVG Version: 6.00 Build 0)  -->
<svg version="1.1" id="圖層_1" xmlns="http://www.w3.org/2000/svg" xmlns:xlink="http://www.w3.org/1999/xlink" x="0px" y="0px"
	 viewBox="0 0 80 80" style="enable-background:new 0 0 80 80;" xml:space="preserve">
<style type="text/css">
	.st0{fill:#D2C7E1;}
</style>
<g>
	<polygon class="st0" points="60.1,42.1 58.2,38.2 22,38.2 20,42.1 	"/>
	<polygon class="st0" points="57.5,37 55.6,33 24.5,33 22.6,37 	"/>
	<polygon class="st0" points="65.3,52.5 63.3,48.5 16.8,48.5 14.8,52.5 	"/>
	<polygon class="st0" points="62.7,47.3 60.7,43.4 19.4,43.4 17.4,47.3 	"/>
	<polygon class="st0" points="35.5,11.1 44.6,11.1 42.6,7.2 37.5,7.2 	"/>
	<polygon class="st0" points="52.4,26.6 50.4,22.7 29.7,22.7 27.8,26.6 	"/>
	<polygon class="st0" points="30.3,21.5 49.8,21.5 47.8,17.5 32.3,17.5 	"/>
	<polygon class="st0" points="55,31.8 53,27.9 27.1,27.9 25.2,31.8 	"/>
	<polygon class="st0" points="34.9,12.3 32.9,16.3 47.2,16.3 45.2,12.3 	"/>
	<polygon class="st0" points="42,5.9 40.1,2 38.1,5.9 	"/>
	<polygon class="st0" points="67.9,57.7 65.9,53.7 14.2,53.7 12.2,57.7 	"/>
	<polygon class="st0" points="3.9,74.4 2.1,77.9 78,77.9 76.3,74.4 	"/>
	<polygon class="st0" points="70.5,62.8 68.5,58.9 11.6,58.9 9.6,62.8 	"/>
	<polygon class="st0" points="73.7,69.2 6.4,69.2 4.5,73.2 75.7,73.2 	"/>
	<polygon class="st0" points="73.1,68 71.1,64.1 9,64.1 7.1,68 	"/>
</g>
</svg>
