<?xml version="1.0" encoding="utf-8"?>
<!-- Generator: Adobe Illustrator 24.0.1, SVG Export Plug-In . SVG Version: 6.00 Build 0)  -->
<svg version="1.1" id="圖層_1" xmlns="http://www.w3.org/2000/svg" xmlns:xlink="http://www.w3.org/1999/xlink" x="0px" y="0px"
	 viewBox="0 0 236.7 236.7" style="enable-background:new 0 0 236.7 236.7;" xml:space="preserve">
<style type="text/css">
	.st0{fill:#DBF3CF;}
</style>
<g>
	<path class="st0" d="M17,172.6c2.6,4.8,5.4,9.3,8.6,13.6h184.5c3.2-4.3,6.1-8.9,8.6-13.6H17z"/>
	<path class="st0" d="M169.1,220.8c7.5-3.8,14.6-8.3,21-13.6H45.6c6.5,5.3,13.5,9.8,21,13.6H169.1z"/>
	<path class="st0" d="M9.4,155.3c1.6,4.7,3.5,9.2,5.6,13.6h205.5c2.2-4.4,4.1-8.9,5.6-13.6H9.4z"/>
	<path class="st0" d="M5,138c0.8,4.6,1.9,9.2,3.2,13.6h219.2c1.3-4.4,2.4-9,3.2-13.6H5z"/>
	<path class="st0" d="M28.4,189.9c3.9,4.9,8.2,9.4,12.8,13.6h153.2c4.6-4.2,8.9-8.7,12.8-13.6H28.4z"/>
	<path class="st0" d="M163.4,13.3c-13.9-6.1-29.3-9.4-45.5-9.4s-31.6,3.4-45.5,9.4H163.4z"/>
	<path class="st0" d="M27.6,47.9h180.5c-3.8-4.9-8-9.4-12.6-13.6H40.2C35.6,38.5,31.4,43,27.6,47.9z"/>
	<path class="st0" d="M64.6,17c-7.3,3.8-14.1,8.4-20.3,13.6h147c-6.2-5.2-13-9.8-20.3-13.6H64.6z"/>
	<path class="st0" d="M14.6,68.9c-2.1,4.4-3.9,8.9-5.5,13.6h217.5c-1.5-4.7-3.4-9.2-5.5-13.6H14.6z"/>
	<path class="st0" d="M24.9,51.6c-3.1,4.3-5.9,8.9-8.4,13.6h202.8c-2.5-4.7-5.3-9.3-8.4-13.6H24.9z"/>
	<path class="st0" d="M74.7,224.5c13.3,5.4,27.9,8.4,43.1,8.4s29.8-3,43.1-8.4H74.7z"/>
	<path class="st0" d="M4.3,103.4c-0.6,4.5-0.9,9-1,13.6h229c-0.1-4.6-0.4-9.2-0.9-13.6H4.3z"/>
	<path class="st0" d="M7.9,86.2c-1.3,4.4-2.3,9-3.1,13.6h226c-0.8-4.6-1.8-9.2-3.1-13.6H7.9z"/>
	<path class="st0" d="M3.4,120.7c0.1,4.6,0.5,9.2,1.1,13.6h226.8c0.6-4.5,1-9,1.1-13.6C232.3,120.7,3.4,120.7,3.4,120.7z"/>
</g>
</svg>
