<?xml version="1.0" encoding="utf-8"?>
<!-- Generator: Adobe Illustrator 24.0.1, SVG Export Plug-In . SVG Version: 6.00 Build 0)  -->
<svg version="1.1" id="cat2" xmlns="http://www.w3.org/2000/svg" xmlns:xlink="http://www.w3.org/1999/xlink" x="0px" y="0px"
	 viewBox="0 0 200 202" style="enable-background:new 0 0 200 202;" xml:space="preserve">
<style type="text/css">
	.st0{fill:#FFFDFA;stroke:#FFA45D;stroke-miterlimit:10;}
</style>
<polygon class="st0" points="16.04,205 43.04,74 60.04,103 144.04,104 162.04,74 189.04,205 "/>
<g>
	<path class="st0" d="M153.46,52.1c0-12.88-10.65-23.33-23.78-23.33c-0.51,0-1.01,0.02-1.51,0.05
		c-3.88-10.22-14.81-17.59-27.68-17.59c-12.9,0-23.85,7.41-27.71,17.67c-11.9,1.29-21.15,11.17-21.15,23.18
		c0,11.51,8.49,21.06,19.67,22.97v18.26c0,7.45,6.04,13.49,13.49,13.49h34.3c7.45,0,13.49-6.04,13.49-13.49V75.25
		C144.34,73.84,153.46,64.02,153.46,52.1z"/>
	<path class="st0" d="M114.77,76.43c0,0-37.35,1.96-43.48-1.47"/>
	<path class="st0" d="M71.29,83.77c0,0,13.68,2.96,27.1,0.44"/>
	<path class="st0" d="M72.68,28.92c0,0,7.67-1.08,10.7,6.02"/>
	<path class="st0" d="M128.25,29.02c0,0-2.04-2.02-5.79,2.88"/>
</g>
</svg>
